<svg xmlns="http://www.w3.org/2000/svg" viewBox="0 0 159.6 71.31"><title>Recurso 1</title><g id="Capa_2" data-name="Capa 2"><g id="Capa_1-2" data-name="Capa 1"><path d="M85.32,59.81a5.7,5.7,0,1,1-5.69,5.72,5.73,5.73,0,0,1,5.69-5.72m0,10.16a4.45,4.45,0,1,0-4.46-4.45A4.45,4.45,0,0,0,85.32,70m-2.12-7.06a.3.3,0,0,1,.3-.31H86a1.93,1.93,0,0,1,2,2,1.83,1.83,0,0,1-1.13,1.75L87.52,68a.3.3,0,0,1-.26.44h-.86a.35.35,0,0,1-.28-.23l-.7-1.78h-.83v1.7a.3.3,0,0,1-.3.31H83.5a.31.31,0,0,1-.3-.31Zm2.59,2.32a.65.65,0,0,0,0-1.3H84.54v1.3Z"/><path d="M89.29,35.54A35.15,35.15,0,1,0,124.45.38,35.15,35.15,0,0,0,89.29,35.54"/><path d="M0,71.31H71.31V0H0ZM26.53,52.1a1,1,0,0,1-.92,1H20.1c-.5,0-.75-.46-.75-1V34c0-.55.25-.81.75-.81h5.51a.81.81,0,0,1,.92.81ZM22.81,27a3.93,3.93,0,0,1-4-4,4,4,0,0,1,4-4,4,4,0,0,1,4,4,4,4,0,0,1-4,4m36.34-2.55c0,.5-.24,1-.79,1H44.22v7.18H55.91a1,1,0,0,1,1,.91V39c0,.5-.54.81-1,.81H44.22V52.1c0,.5-.18,1-.68,1H37.63a1.15,1.15,0,0,1-1.14-1V19c0-.5.6-.72,1.14-.72H58.36c.55,0,.79.22.79.72Z"/></g></g></svg>